<svg width="30" height="30" viewBox="0 0 30 30" fill="none" xmlns="http://www.w3.org/2000/svg">
<path d="M21.8711 8.84249C21.8299 8.83241 21.7864 8.82506 21.7374 8.82527C19.7054 8.82684 17.6736 8.84824 15.6415 8.87133V5.53832C15.6415 5.51745 15.6377 5.49898 15.6354 5.47948C15.6271 5.22898 15.3927 4.95526 15.0366 5.00617C14.1622 5.13144 13.32 5.40553 12.5916 5.87203C12.0902 6.1931 12.5674 6.95344 13.0743 6.62886C13.572 6.31031 14.1117 6.09943 14.6857 5.96474V8.88121C12.4147 8.90724 10.144 8.93306 7.87272 8.93471C7.60652 8.93492 7.45592 9.09837 7.4195 9.28404C7.39115 9.309 7.36411 9.33693 7.34008 9.3708C7.09357 9.72129 6.90224 10.1549 7.054 10.5724C7.21581 11.0171 7.69554 11.2354 8.16385 11.3293C8.23895 11.3443 8.30895 11.3443 8.37237 11.3325C8.39436 11.337 8.41839 11.3391 8.44196 11.3414C8.92443 14.8116 9.51152 20.6779 10.2204 24.1155C10.2579 24.2976 10.3829 24.3933 10.5292 24.4218C10.5711 24.4449 10.6173 24.4646 10.6738 24.4764C13.5726 25.0819 16.5548 25.1958 19.474 24.6408C19.7175 24.5947 19.8191 24.4293 19.8166 24.2562C19.8535 24.1992 19.8787 24.1327 19.8848 24.0538C20.1472 20.5543 20.9457 14.7099 21.4814 11.2422C21.4857 11.2143 21.486 11.1879 21.4852 11.1617C21.6289 11.149 21.7729 11.1393 21.9167 11.1258C22.1883 11.1001 22.3385 10.9101 22.3678 10.7135C22.6221 10.1623 22.6445 9.56115 22.2698 9.04209C22.1668 8.89947 22.0182 8.84167 21.8711 8.84249ZM18.9482 23.8436C16.344 24.298 13.6839 24.1864 11.0996 23.6655C10.8936 22.6586 10.6992 19.2399 10.5141 18.2303C11.877 18.6179 13.1664 18.4821 14.5486 17.9582C16.2206 17.3246 17.7049 16.4493 19.5827 16.6532C19.3142 18.2398 19.0778 22.2405 18.9482 23.8436ZM19.7299 15.8002C19.7029 15.7929 19.6759 15.7857 19.6457 15.7821C16.3307 15.3806 13.6491 18.5496 10.3848 17.2663C10.369 17.26 10.3532 17.2572 10.3374 17.2524C10.2502 16.7602 10.1651 16.2678 10.0822 15.775C13.0423 17.8321 16.4198 13.7591 19.7579 14.6163C19.8222 14.6328 19.8817 14.6359 19.9373 14.631C19.8674 15.0206 19.7983 15.4106 19.7299 15.8002ZM20.0865 13.7977C20.0627 13.7881 20.0391 13.7782 20.0119 13.7711C18.3209 13.3369 16.7487 13.9074 15.2211 14.5538C13.3765 15.3345 11.5512 16.2003 10.0035 14.4863C9.95653 14.4346 9.90574 14.3987 9.85327 14.3746C9.69466 13.3761 9.54244 12.3766 9.40307 11.3755C13.1108 11.495 16.8228 11.5165 20.5213 11.2423C20.3868 12.0954 20.238 12.9468 20.0865 13.7977ZM21.5346 10.2811C17.1911 10.6691 12.8268 10.6266 8.47013 10.4686C8.43579 10.4673 8.40374 10.4699 8.37331 10.4738C8.25747 10.4495 8.14623 10.422 8.04143 10.3687C7.96634 10.3303 8.01534 10.3572 7.95994 10.3052C7.99104 10.3346 7.96544 10.2839 7.95742 10.2766C7.94187 10.1735 8.05906 9.96464 8.1657 9.81318C8.16642 9.81194 8.16683 9.81086 8.16755 9.8095C12.6322 9.80227 17.0958 9.7084 21.5607 9.70228C21.6292 9.88986 21.6159 10.085 21.5346 10.2811Z" fill="white"/>
<circle cx="15" cy="15" r="14.5" stroke="white"/>
</svg>
