<svg width="20" height="18" viewBox="0 0 20 18" fill="none" xmlns="http://www.w3.org/2000/svg">
<path d="M17.5959 2.87673C17.5503 2.87673 16.9906 3.0715 16.6849 2.65307C15.9325 1.67355 14.4535 1.86492 13.8996 3.03424C13.8996 3.03468 13.8996 3.03468 13.8993 3.03513C13.7742 3.29503 13.537 3.43066 13.2927 3.39711L10.4935 0.0982335C10.3823 -0.0327445 10.2021 -0.0327445 10.0909 0.0982335C9.76208 0.560191 9.51597 0.813513 9.32946 1.60895C9.32946 1.609 9.32942 1.60909 9.32942 1.60913C8.86698 1.43481 8.3714 1.47914 7.9603 1.72964L7.32877 0.985288C6.99582 0.592935 6.45397 0.592935 6.12096 0.985288C5.93285 1.20698 5.85117 1.50719 5.87561 1.79724C5.2273 1.79267 4.59314 2.20082 4.28085 2.88836C4.23132 2.99742 4.17173 3.09078 4.10375 3.16588C3.98905 3.29261 3.98324 3.50492 4.09077 3.64014C4.19833 3.77528 4.37847 3.78213 4.49317 3.65544C4.60643 3.53023 4.7039 3.37872 4.78281 3.20507C5.05665 2.60207 5.72922 2.31086 6.28188 2.55613C6.56704 2.68214 6.79895 2.25883 6.58344 2.00484L6.52358 1.93434C6.41257 1.8035 6.41256 1.59061 6.52355 1.45986C6.63456 1.32906 6.81516 1.32906 6.92617 1.45986C7.7963 2.48532 7.81406 2.45964 7.81406 2.64604C7.81406 2.94719 7.50526 3.09127 7.3288 2.88331C7.21763 2.75228 7.03738 2.75224 6.92621 2.88326C6.815 3.01428 6.815 3.22672 6.92617 3.3577C7.08699 3.54728 7.30148 3.65168 7.53008 3.65168C8.00296 3.65168 8.38339 3.20351 8.38339 2.64604C8.38339 2.51591 8.36229 2.38986 8.32278 2.27275C8.60194 2.14432 8.93272 2.14347 9.23089 2.27901C9.13858 3.73498 9.81863 5.05353 10.8783 5.65814C10.7858 5.84311 10.6323 5.96227 10.4775 5.99506L10.474 5.996C10.3414 6.02678 10.2128 6.07746 10.0903 6.14537C9.71994 4.72997 8.60023 3.69825 7.27931 3.69825C5.98792 3.69825 4.88908 4.68439 4.49435 6.05094C4.48596 5.98156 4.45947 5.91463 4.41415 5.86127C4.25329 5.67173 4.03881 5.56733 3.81024 5.56733C3.58164 5.56733 3.36719 5.67173 3.20637 5.86127L2.40112 6.81023C2.06817 7.20268 2.06817 7.84124 2.40115 8.23363C2.45676 8.29912 2.52963 8.33187 2.60247 8.33187C2.6753 8.33187 2.74818 8.29912 2.80378 8.23363C2.91495 8.10257 2.91495 7.89018 2.80378 7.75915C2.69276 7.62835 2.69276 7.41547 2.80371 7.28472L3.60896 6.33575C3.66229 6.27295 3.73376 6.23832 3.81024 6.23832C3.88672 6.23832 3.95819 6.2729 4.01152 6.3358C4.12273 6.46677 4.30294 6.46677 4.41411 6.3358C4.41847 6.33065 4.42238 6.32519 4.42637 6.31978C4.3686 6.59046 4.33755 6.87357 4.33755 7.1651C4.33755 7.59351 4.40458 8.00348 4.52589 8.38242H2.03902C1.61988 8.17879 1.42316 7.71648 1.46639 7.2751C1.49828 6.95678 1.41861 6.49795 0.857553 6.11911C0.744219 6.04315 0.652823 5.92694 0.605758 5.79757C0.441298 5.35623 0.86746 4.96173 1.25973 5.06739C1.72065 5.18692 2.11144 5.06811 2.35823 4.73597C2.65944 4.34084 3.29234 4.42176 3.51696 4.89839C3.59325 5.06041 3.76655 5.11893 3.90403 5.02883C4.0415 4.93892 4.09103 4.73467 4.01474 4.57269C3.60183 3.69615 2.4998 3.54643 1.93237 4.29069C1.79634 4.4737 1.55809 4.45773 1.38403 4.41259C0.956844 4.29803 0.502786 4.47777 0.227762 4.87025C-0.201094 5.48238 0.00982359 6.32282 0.575356 6.70184C0.926746 6.93911 0.907389 7.1328 0.900936 7.19726C0.857326 7.64244 0.968193 8.0997 1.19987 8.45269C0.920445 8.55213 0.672446 8.7541 0.489274 9.03936C0.217856 9.46191 0.132305 9.99701 0.254483 10.5075C0.756289 12.6038 2.11197 14.4316 4.07961 15.6713C4.12132 16.2892 4.35289 16.8621 4.73798 17.2946C5.14296 17.7495 5.67282 18 6.22992 18H12.9606C13.5176 18 14.0475 17.7495 14.4525 17.2946C14.8375 16.8622 15.0691 16.2895 15.1108 15.6719C17.0757 14.4341 18.4305 12.609 18.934 10.5156C19.0576 10.0017 18.9723 9.46343 18.7 9.03883C18.4323 8.62165 18.026 8.38237 17.585 8.38237H11.9686C12.1801 7.51938 12.8505 6.90632 13.6397 6.90632H13.6412C14.179 6.90632 14.6789 7.1944 15.0125 7.6963C15.0668 7.77816 15.1488 7.82513 15.2372 7.82513C15.301 7.82513 15.3617 7.80053 15.4122 7.75401C15.5359 7.63994 15.558 7.42876 15.4611 7.28297C15.0383 6.64477 14.3782 6.23532 13.6411 6.23532C13.0649 6.23577 12.513 6.48762 12.0868 6.94434C11.7282 7.32914 11.4838 7.83162 11.3827 8.38237H9.66032C9.57063 7.94891 9.67307 7.49854 9.90243 7.15772C10.3699 6.46243 10.7703 6.83725 11.2381 6.21206C11.3192 6.10368 11.3762 5.99511 11.4172 5.89191C11.4977 5.689 11.5167 5.45711 11.5334 5.23398C11.5915 4.45509 12.3029 3.78673 13.0354 4.01836C13.7336 4.2575 14.3163 3.65567 14.3969 3.36123C14.7665 2.58364 15.7798 2.47091 16.2625 3.10312C16.3889 3.27177 16.5506 3.40328 16.7309 3.48425C17.1226 3.66068 17.6075 3.57738 17.7223 3.53077C18.0479 3.44462 18.374 3.56123 18.5957 3.79067C19.0757 4.28797 18.8485 4.99233 18.3862 5.29911L18.3858 5.29956C17.8818 5.63872 17.498 6.13745 17.5736 6.80974C17.6342 7.45117 17.3957 7.58944 17.4916 7.84799C17.5933 8.1201 17.9255 8.11388 18.0177 7.83412C18.2161 7.23045 18.135 6.7039 18.135 6.65496C18.1361 6.50735 18.1767 6.38657 18.2705 6.25058C18.3574 6.12533 18.4944 5.99828 18.6663 5.88332L18.6667 5.88287C18.9617 5.68515 19.1943 5.38589 19.3219 5.04055C19.3959 4.84239 19.4331 4.63796 19.4331 4.43263C19.433 3.40708 18.5034 2.63034 17.5959 2.87673ZM7.27927 4.3692C8.4106 4.3692 9.35865 5.30765 9.59439 6.55852C9.54581 6.616 9.49942 6.67675 9.456 6.74121C9.20019 7.12233 9.05899 7.59288 9.05861 8.06665C9.05861 8.17316 9.0659 8.27846 9.07991 8.38233H8.74954C8.8918 8.02039 8.46875 7.72028 8.26406 8.0394C8.19991 8.13947 8.12499 8.22961 8.04138 8.30727C8.01784 8.32914 7.99807 8.35455 7.98205 8.38233H7.5639V8.34829C8.00148 8.20187 8.32304 7.72699 8.32304 7.16501C8.32304 6.97968 8.19562 6.82951 8.03838 6.82951C7.88113 6.82951 7.75371 6.97968 7.75371 7.16501C7.75371 7.47335 7.54086 7.72417 7.27927 7.72417C7.01765 7.72417 6.80479 7.47335 6.80479 7.16501C6.80479 6.85667 7.01765 6.60585 7.27927 6.60585C7.41807 6.60585 7.5335 6.48874 7.5587 6.33383C7.56041 6.33463 7.56223 6.33517 7.56394 6.33597C7.56394 5.782 7.56394 5.91602 7.56394 5.37569C7.56394 5.19041 7.43648 5.0402 7.27927 5.0402C7.12202 5.0402 6.99461 5.19041 6.99461 5.37569V5.98173C6.55702 6.12819 6.23547 6.60303 6.23547 7.16501C6.23547 7.72699 6.55702 8.20183 6.99461 8.34829V8.38233H6.57577C6.55972 8.35419 6.53983 8.32842 6.51607 8.30628C6.43257 8.22854 6.35772 8.13835 6.29365 8.03815C6.08865 7.71769 5.66439 8.02021 5.80851 8.38228H5.14467C4.99266 8.01413 4.90696 7.60125 4.90696 7.16496C4.90696 5.62342 5.97115 4.3692 7.27927 4.3692ZM17.5849 9.05332C17.8459 9.05332 18.0867 9.19553 18.2457 9.44344C18.4095 9.69877 18.4607 10.0228 18.3861 10.3325C17.9187 12.2761 16.6332 13.9766 14.7635 15.1287H5.49595C5.33919 15.1287 5.21128 15.2789 5.21128 15.4642C5.21128 15.6489 5.33923 15.7997 5.49595 15.7997H14.5225C14.3871 16.6637 13.7289 17.329 12.9604 17.329H6.22985C5.38481 17.329 4.673 16.5247 4.64309 15.536C4.64074 15.4604 4.65023 15.3691 4.58665 15.2657C4.56365 15.2282 4.52703 15.1898 4.48702 15.1655C2.58178 14.0112 1.27324 12.2923 0.802366 10.3253C0.729037 10.0189 0.780315 9.69783 0.943142 9.44433C1.10271 9.19589 1.34406 9.05341 1.60539 9.05341C2.39785 9.05332 16.7876 9.05332 17.5849 9.05332ZM11.5131 3.88421C11.4765 3.68828 11.3654 3.70281 11.1845 3.42601C11.0886 3.27924 10.9098 3.25195 10.7852 3.36508C10.6607 3.47799 10.6376 3.68886 10.7335 3.83563C10.8244 3.97461 10.9341 4.10639 11.0612 4.22221C11.1101 4.26667 11.1674 4.28931 11.2247 4.29177C11.1142 4.49521 11.0336 4.71727 10.991 4.96992C9.71353 4.11646 9.41554 2.136 10.2961 0.814632L11.2509 1.9398C11.1647 2.12106 11.1186 2.32611 11.1186 2.53958C11.1186 2.86819 11.2272 3.17711 11.4243 3.40946C11.5355 3.54048 11.7157 3.54043 11.8269 3.40946C11.9381 3.27839 11.9381 3.066 11.8269 2.93497C11.7373 2.8294 11.688 2.68894 11.688 2.53958C11.688 2.51301 11.6901 2.48688 11.6932 2.46103L12.4317 3.33135C12.105 3.40266 11.7913 3.58163 11.5131 3.88421Z" fill="white"/>
</svg>
