<svg width="30" height="30" viewBox="0 0 30 30" fill="none" xmlns="http://www.w3.org/2000/svg">
<circle cx="15" cy="15" r="14.5" fill="#00A72F" stroke="white"/>
<path d="M22.5959 7.87673C22.5503 7.87673 21.9906 8.0715 21.6849 7.65307C20.9325 6.67355 19.4535 6.86492 18.8996 8.03424C18.8996 8.03468 18.8996 8.03468 18.8993 8.03513C18.7742 8.29503 18.537 8.43066 18.2927 8.39711L15.4935 5.09823C15.3823 4.96726 15.2021 4.96726 15.0909 5.09823C14.7621 5.56019 14.516 5.81351 14.3295 6.60895C14.3295 6.609 14.3294 6.60909 14.3294 6.60913C13.867 6.43481 13.3714 6.47914 12.9603 6.72964L12.3288 5.98529C11.9958 5.59294 11.454 5.59294 11.121 5.98529C10.9328 6.20698 10.8512 6.50719 10.8756 6.79724C10.2273 6.79267 9.59314 7.20082 9.28085 7.88836C9.23132 7.99742 9.17173 8.09078 9.10375 8.16588C8.98905 8.29261 8.98324 8.50492 9.09077 8.64014C9.19833 8.77528 9.37847 8.78213 9.49317 8.65544C9.60643 8.53023 9.7039 8.37872 9.78281 8.20507C10.0567 7.60207 10.7292 7.31086 11.2819 7.55613C11.567 7.68214 11.7989 7.25883 11.5834 7.00484L11.5236 6.93434C11.4126 6.8035 11.4126 6.59061 11.5235 6.45986C11.6346 6.32906 11.8152 6.32906 11.9262 6.45986C12.7963 7.48532 12.8141 7.45964 12.8141 7.64604C12.8141 7.94719 12.5053 8.09127 12.3288 7.88331C12.2176 7.75228 12.0374 7.75224 11.9262 7.88326C11.815 8.01428 11.815 8.22672 11.9262 8.3577C12.087 8.54728 12.3015 8.65168 12.5301 8.65168C13.003 8.65168 13.3834 8.20351 13.3834 7.64604C13.3834 7.51591 13.3623 7.38986 13.3228 7.27275C13.6019 7.14432 13.9327 7.14347 14.2309 7.27901C14.1386 8.73498 14.8186 10.0535 15.8783 10.6581C15.7858 10.8431 15.6323 10.9623 15.4775 10.9951L15.474 10.996C15.3414 11.0268 15.2128 11.0775 15.0903 11.1454C14.7199 9.72997 13.6002 8.69825 12.2793 8.69825C10.9879 8.69825 9.88908 9.68439 9.49435 11.0509C9.48596 10.9816 9.45947 10.9146 9.41415 10.8613C9.25329 10.6717 9.03881 10.5673 8.81024 10.5673C8.58164 10.5673 8.36719 10.6717 8.20637 10.8613L7.40112 11.8102C7.06817 12.2027 7.06817 12.8412 7.40115 13.2336C7.45676 13.2991 7.52963 13.3319 7.60247 13.3319C7.6753 13.3319 7.74818 13.2991 7.80378 13.2336C7.91495 13.1026 7.91495 12.8902 7.80378 12.7592C7.69276 12.6284 7.69276 12.4155 7.80371 12.2847L8.60896 11.3358C8.66229 11.2729 8.73376 11.2383 8.81024 11.2383C8.88672 11.2383 8.95819 11.2729 9.01152 11.3358C9.12273 11.4668 9.30294 11.4668 9.41411 11.3358C9.41847 11.3307 9.42238 11.3252 9.42637 11.3198C9.3686 11.5905 9.33755 11.8736 9.33755 12.1651C9.33755 12.5935 9.40458 13.0035 9.52589 13.3824H7.03902C6.61988 13.1788 6.42316 12.7165 6.46639 12.2751C6.49828 11.9568 6.41861 11.498 5.85755 11.1191C5.74422 11.0432 5.65282 10.9269 5.60576 10.7976C5.4413 10.3562 5.86746 9.96173 6.25973 10.0674C6.72065 10.1869 7.11144 10.0681 7.35823 9.73597C7.65944 9.34084 8.29234 9.42176 8.51696 9.89839C8.59325 10.0604 8.76655 10.1189 8.90403 10.0288C9.0415 9.93892 9.09103 9.73467 9.01474 9.57269C8.60183 8.69615 7.4998 8.54643 6.93237 9.29069C6.79634 9.4737 6.55809 9.45773 6.38403 9.41259C5.95684 9.29803 5.50279 9.47777 5.22776 9.87025C4.79891 10.4824 5.00982 11.3228 5.57536 11.7018C5.92675 11.9391 5.90739 12.1328 5.90094 12.1973C5.85733 12.6424 5.96819 13.0997 6.19987 13.4527C5.92045 13.5521 5.67245 13.7541 5.48927 14.0394C5.21786 14.4619 5.13231 14.997 5.25448 15.5075C5.75629 17.6038 7.11197 19.4316 9.07961 20.6713C9.12132 21.2892 9.35289 21.8621 9.73798 22.2946C10.143 22.7495 10.6728 23 11.2299 23H17.9606C18.5176 23 19.0475 22.7495 19.4525 22.2946C19.8375 21.8622 20.0691 21.2895 20.1108 20.6719C22.0757 19.4341 23.4305 17.609 23.934 15.5156C24.0576 15.0017 23.9723 14.4634 23.7 14.0388C23.4323 13.6216 23.026 13.3824 22.585 13.3824H16.9686C17.1801 12.5194 17.8505 11.9063 18.6397 11.9063H18.6412C19.179 11.9063 19.6789 12.1944 20.0125 12.6963C20.0668 12.7782 20.1488 12.8251 20.2372 12.8251C20.301 12.8251 20.3617 12.8005 20.4122 12.754C20.5359 12.6399 20.558 12.4288 20.4611 12.283C20.0383 11.6448 19.3782 11.2353 18.6411 11.2353C18.0649 11.2358 17.513 11.4876 17.0868 11.9443C16.7282 12.3291 16.4838 12.8316 16.3827 13.3824H14.6603C14.5706 12.9489 14.6731 12.4985 14.9024 12.1577C15.3699 11.4624 15.7703 11.8373 16.2381 11.2121C16.3192 11.1037 16.3762 10.9951 16.4172 10.8919C16.4977 10.689 16.5167 10.4571 16.5334 10.234C16.5915 9.45509 17.3029 8.78673 18.0354 9.01836C18.7336 9.2575 19.3163 8.65567 19.3969 8.36123C19.7665 7.58364 20.7798 7.47091 21.2625 8.10312C21.3889 8.27177 21.5506 8.40328 21.7309 8.48425C22.1226 8.66068 22.6075 8.57738 22.7223 8.53077C23.0479 8.44462 23.374 8.56123 23.5957 8.79067C24.0757 9.28797 23.8485 9.99233 23.3862 10.2991L23.3858 10.2996C22.8818 10.6387 22.498 11.1374 22.5736 11.8097C22.6342 12.4512 22.3957 12.5894 22.4916 12.848C22.5933 13.1201 22.9255 13.1139 23.0177 12.8341C23.2161 12.2305 23.135 11.7039 23.135 11.655C23.1361 11.5073 23.1767 11.3866 23.2705 11.2506C23.3574 11.1253 23.4944 10.9983 23.6663 10.8833L23.6667 10.8829C23.9617 10.6852 24.1943 10.3859 24.3219 10.0406C24.3959 9.84239 24.4331 9.63796 24.4331 9.43263C24.433 8.40708 23.5034 7.63034 22.5959 7.87673ZM12.2793 9.3692C13.4106 9.3692 14.3586 10.3077 14.5944 11.5585C14.5458 11.616 14.4994 11.6767 14.456 11.7412C14.2002 12.1223 14.059 12.5929 14.0586 13.0666C14.0586 13.1732 14.0659 13.2785 14.0799 13.3823H13.7495C13.8918 13.0204 13.4688 12.7203 13.2641 13.0394C13.1999 13.1395 13.125 13.2296 13.0414 13.3073C13.0178 13.3291 12.9981 13.3545 12.9821 13.3823H12.5639V13.3483C13.0015 13.2019 13.323 12.727 13.323 12.165C13.323 11.9797 13.1956 11.8295 13.0384 11.8295C12.8811 11.8295 12.7537 11.9797 12.7537 12.165C12.7537 12.4734 12.5409 12.7242 12.2793 12.7242C12.0176 12.7242 11.8048 12.4734 11.8048 12.165C11.8048 11.8567 12.0176 11.6058 12.2793 11.6058C12.4181 11.6058 12.5335 11.4887 12.5587 11.3338C12.5604 11.3346 12.5622 11.3352 12.5639 11.336C12.5639 10.782 12.5639 10.916 12.5639 10.3757C12.5639 10.1904 12.4365 10.0402 12.2793 10.0402C12.122 10.0402 11.9946 10.1904 11.9946 10.3757V10.9817C11.557 11.1282 11.2355 11.603 11.2355 12.165C11.2355 12.727 11.557 13.2018 11.9946 13.3483V13.3823H11.5758C11.5597 13.3542 11.5398 13.3284 11.5161 13.3063C11.4326 13.2285 11.3577 13.1384 11.2937 13.0382C11.0887 12.7177 10.6644 13.0202 10.8085 13.3823H10.1447C9.99266 13.0141 9.90696 12.6012 9.90696 12.165C9.90696 10.6234 10.9711 9.3692 12.2793 9.3692ZM22.5849 14.0533C22.8459 14.0533 23.0867 14.1955 23.2457 14.4434C23.4095 14.6988 23.4607 15.0228 23.3861 15.3325C22.9187 17.2761 21.6332 18.9766 19.7635 20.1287H10.4959C10.3392 20.1287 10.2113 20.2789 10.2113 20.4642C10.2113 20.6489 10.3392 20.7997 10.4959 20.7997H19.5225C19.3871 21.6637 18.7289 22.329 17.9604 22.329H11.2298C10.3848 22.329 9.673 21.5247 9.64309 20.536C9.64074 20.4604 9.65023 20.3691 9.58665 20.2657C9.56365 20.2282 9.52703 20.1898 9.48702 20.1655C7.58178 19.0112 6.27324 17.2923 5.80237 15.3253C5.72904 15.0189 5.78031 14.6978 5.94314 14.4443C6.10271 14.1959 6.34406 14.0534 6.60539 14.0534C7.39785 14.0533 21.7876 14.0533 22.5849 14.0533ZM16.5131 8.88421C16.4765 8.68828 16.3654 8.70281 16.1845 8.42601C16.0886 8.27924 15.9098 8.25195 15.7852 8.36508C15.6607 8.47799 15.6376 8.68886 15.7335 8.83563C15.8244 8.97461 15.9341 9.10639 16.0612 9.22221C16.1101 9.26667 16.1674 9.28931 16.2247 9.29177C16.1142 9.49521 16.0336 9.71727 15.991 9.96992C14.7135 9.11646 14.4155 7.136 15.2961 5.81463L16.2509 6.9398C16.1647 7.12106 16.1186 7.32611 16.1186 7.53958C16.1186 7.86819 16.2272 8.17711 16.4243 8.40946C16.5355 8.54048 16.7157 8.54043 16.8269 8.40946C16.9381 8.27839 16.9381 8.066 16.8269 7.93497C16.7373 7.8294 16.688 7.68894 16.688 7.53958C16.688 7.51301 16.6901 7.48688 16.6932 7.46103L17.4317 8.33135C17.105 8.40266 16.7913 8.58163 16.5131 8.88421Z" fill="white"/>
</svg>
