<svg width="282" height="91" viewBox="0 0 282 91" fill="none" xmlns="http://www.w3.org/2000/svg">
<rect x="1.5" y="1.5" width="143.504" height="87" rx="8.5" fill="#A70000" stroke="#FF9900" stroke-width="3"/>
<rect x="137.625" y="22.5" width="13.3185" height="49.5" fill="#A70000"/>
<path d="M153.773 29.875L164.93 57.7188L176.086 29.875H181.922V64H177.422V50.7109L177.844 36.3672L166.641 64H163.195L152.016 36.4375L152.461 50.7109V64H147.961V29.875H153.773ZM209.156 48.2266H194.367V60.3203H211.547V64H189.867V29.875H211.312V33.5781H194.367V44.5469H209.156V48.2266ZM243.375 64H238.852L221.672 37.7031V64H217.148V29.875H221.672L238.898 56.2891V29.875H243.375V64ZM275.391 29.875V53.0781C275.375 56.2969 274.359 58.9297 272.344 60.9766C270.344 63.0234 267.625 64.1719 264.188 64.4219L262.992 64.4688C259.258 64.4688 256.281 63.4609 254.062 61.4453C251.844 59.4297 250.719 56.6562 250.688 53.125V29.875H255.141V52.9844C255.141 55.4531 255.82 57.375 257.18 58.75C258.539 60.1094 260.477 60.7891 262.992 60.7891C265.539 60.7891 267.484 60.1094 268.828 58.75C270.188 57.3906 270.867 55.4766 270.867 53.0078V29.875H275.391Z" fill="black"/>
<path d="M43.499 48.9297H29.1787V64H24.6787V29.875H45.8193V33.5781H29.1787V45.25H43.499V48.9297ZM55.7334 60.3203H71.9053V64H51.21V29.875H55.7334V60.3203ZM101.741 48.0391C101.741 51.3828 101.179 54.3047 100.054 56.8047C98.9287 59.2891 97.335 61.1875 95.2725 62.5C93.21 63.8125 90.8037 64.4688 88.0537 64.4688C85.3662 64.4688 82.9834 63.8125 80.9053 62.5C78.8271 61.1719 77.21 59.2891 76.0537 56.8516C74.9131 54.3984 74.3271 51.5625 74.2959 48.3438V45.8828C74.2959 42.6016 74.8662 39.7031 76.0068 37.1875C77.1475 34.6719 78.7568 32.75 80.835 31.4219C82.9287 30.0781 85.3193 29.4062 88.0068 29.4062C90.7412 29.4062 93.1475 30.0703 95.2256 31.3984C97.3193 32.7109 98.9287 34.625 100.054 37.1406C101.179 39.6406 101.741 42.5547 101.741 45.8828V48.0391ZM97.2646 45.8359C97.2646 41.7891 96.4521 38.6875 94.8271 36.5312C93.2021 34.3594 90.9287 33.2734 88.0068 33.2734C85.1631 33.2734 82.9209 34.3594 81.2803 36.5312C79.6553 38.6875 78.8193 41.6875 78.7725 45.5312V48.0391C78.7725 51.9609 79.5928 55.0469 81.2334 57.2969C82.8896 59.5312 85.1631 60.6484 88.0537 60.6484C90.96 60.6484 93.21 59.5938 94.8037 57.4844C96.3975 55.3594 97.2178 52.3203 97.2646 48.3672V45.8359ZM115.851 53.2422L116.507 57.7422L117.468 53.6875L124.218 29.875H128.015L134.601 53.6875L135.538 57.8125L136.265 53.2188L141.562 29.875H146.085L137.812 64H133.71L126.679 39.1328L126.14 36.5312L125.601 39.1328L118.312 64H114.21L105.96 29.875H110.46L115.851 53.2422Z" fill="white"/>
</svg>
