<svg width="137" height="40" viewBox="0 0 137 40" fill="none" xmlns="http://www.w3.org/2000/svg">
<rect x="1" y="1" width="69" height="38" rx="4" fill="#A70000" stroke="#FF9900" stroke-width="2"/>
<rect x="67" y="10" width="6" height="22" fill="#A70000"/>
<path d="M73.8867 12.9375L79.4648 26.8594L85.043 12.9375H87.9609V30H85.7109V23.3555L85.9219 16.1836L80.3203 30H78.5977L73.0078 16.2188L73.2305 23.3555V30H70.9805V12.9375H73.8867ZM101.578 22.1133H94.1836V28.1602H102.773V30H91.9336V12.9375H102.656V14.7891H94.1836V20.2734H101.578V22.1133ZM118.688 30H116.426L107.836 16.8516V30H105.574V12.9375H107.836L116.449 26.1445V12.9375H118.688V30ZM134.695 12.9375V24.5391C134.688 26.1484 134.18 27.4648 133.172 28.4883C132.172 29.5117 130.812 30.0859 129.094 30.2109L128.496 30.2344C126.629 30.2344 125.141 29.7305 124.031 28.7227C122.922 27.7148 122.359 26.3281 122.344 24.5625V12.9375H124.57V24.4922C124.57 25.7266 124.91 26.6875 125.59 27.375C126.27 28.0547 127.238 28.3945 128.496 28.3945C129.77 28.3945 130.742 28.0547 131.414 27.375C132.094 26.6953 132.434 25.7383 132.434 24.5039V12.9375H134.695Z" fill="black"/>
<path d="M18.3906 22.4648H11.2305V30H8.98047V12.9375H19.5508V14.7891H11.2305V20.625H18.3906V22.4648ZM24.5078 28.1602H32.5938V30H22.2461V12.9375H24.5078V28.1602ZM47.5117 22.0195C47.5117 23.6914 47.2305 25.1523 46.668 26.4023C46.1055 27.6445 45.3086 28.5938 44.2773 29.25C43.2461 29.9062 42.043 30.2344 40.668 30.2344C39.3242 30.2344 38.1328 29.9062 37.0938 29.25C36.0547 28.5859 35.2461 27.6445 34.668 26.4258C34.0977 25.1992 33.8047 23.7812 33.7891 22.1719V20.9414C33.7891 19.3008 34.0742 17.8516 34.6445 16.5938C35.2148 15.3359 36.0195 14.375 37.0586 13.7109C38.1055 13.0391 39.3008 12.7031 40.6445 12.7031C42.0117 12.7031 43.2148 13.0352 44.2539 13.6992C45.3008 14.3555 46.1055 15.3125 46.668 16.5703C47.2305 17.8203 47.5117 19.2773 47.5117 20.9414V22.0195ZM45.2734 20.918C45.2734 18.8945 44.8672 17.3438 44.0547 16.2656C43.2422 15.1797 42.1055 14.6367 40.6445 14.6367C39.2227 14.6367 38.1016 15.1797 37.2812 16.2656C36.4688 17.3438 36.0508 18.8438 36.0273 20.7656V22.0195C36.0273 23.9805 36.4375 25.5234 37.2578 26.6484C38.0859 27.7656 39.2227 28.3242 40.668 28.3242C42.1211 28.3242 43.2461 27.7969 44.043 26.7422C44.8398 25.6797 45.25 24.1602 45.2734 22.1836V20.918ZM54.5664 24.6211L54.8945 26.8711L55.375 24.8438L58.75 12.9375H60.6484L63.9414 24.8438L64.4102 26.9062L64.7734 24.6094L67.4219 12.9375H69.6836L65.5469 30H63.4961L59.9805 17.5664L59.7109 16.2656L59.4414 17.5664L55.7969 30H53.7461L49.6211 12.9375H51.8711L54.5664 24.6211Z" fill="white"/>
</svg>
