<svg width="30" height="30" viewBox="0 0 30 30" fill="none" xmlns="http://www.w3.org/2000/svg">
<path d="M21.882 14.5071C22.6437 13.7327 22.5833 12.5333 21.7471 11.8279C21.3689 11.5089 20.8754 11.3325 20.3639 11.3335H19.4952C20.2526 10.5553 20.1853 9.35589 19.3448 8.65456C18.9676 8.33984 18.4776 8.16599 17.9699 8.16682H17.9463C17.7729 6.90147 16.6114 5.95231 15.2339 5.95017H14.765C14.5091 5.95765 14.2817 5.7998 14.2178 5.57018C14.2043 5.50748 14.2043 5.44288 14.2178 5.38018C14.2355 5.28589 14.2066 5.18923 14.1392 5.11672C14.0708 5.04285 13.971 5.0003 13.8659 5.00018C12.9875 4.98886 12.2019 5.50431 11.9224 6.27539C11.7067 6.86414 11.8123 7.51315 12.2055 8.01704C12.2472 8.06925 12.2917 8.11948 12.3389 8.16745H11.8139C10.6826 8.16567 9.7638 9.01342 9.76188 10.061C9.76102 10.5311 9.94874 10.9848 10.2886 11.3341H9.41997C8.28877 11.3321 7.37 12.1795 7.36782 13.2269C7.36683 13.7006 7.55732 14.1575 7.90184 14.5077C6.83075 14.5804 6.00141 15.4056 6 16.4001C5.99983 17.0238 6.33434 17.6068 6.89261 17.9558L9.09712 23.7878C9.14509 23.9149 9.27458 24 9.41997 24H20.3639C20.5093 24 20.6387 23.9149 20.6867 23.7878L22.8912 17.9558C23.4495 17.6068 23.784 17.0238 23.7838 16.4001C23.7828 15.4054 22.9534 14.5798 21.882 14.5071ZM12.5732 6.47267C12.7247 6.06829 13.0916 5.7654 13.5427 5.67214C13.5427 5.67848 13.5451 5.68481 13.5462 5.69114C13.6709 6.2195 14.181 6.59296 14.765 6.5835H15.2339C16.2348 6.58465 17.0893 7.25324 17.2575 8.16682H13.8659C13.428 8.16599 13.0167 7.97195 12.7585 7.64432C12.496 7.30443 12.427 6.86798 12.5732 6.47267ZM11.8139 8.80015H17.9699C18.7254 8.80015 19.3379 9.36725 19.3379 10.0668C19.3379 10.7664 18.7254 11.3335 17.9699 11.3335H11.8139C11.0584 11.3335 10.446 10.7664 10.446 10.0668C10.446 9.36725 11.0584 8.80015 11.8139 8.80015ZM9.41997 11.9668H20.3639C21.1194 11.9668 21.7319 12.5339 21.7319 13.2334C21.7319 13.933 21.1194 14.5001 20.3639 14.5001H9.41997C8.66445 14.5001 8.05198 13.933 8.05198 13.2334C8.05198 12.5339 8.66445 11.9668 9.41997 11.9668ZM9.66278 23.3667L7.4145 17.4188C7.60798 17.2433 7.86256 17.1374 8.13269 17.1198C8.46285 17.0997 8.78646 17.2114 9.02188 17.4267L9.10123 17.5002L10.0489 23.3667H9.66278ZM10.7408 23.3667L9.78317 17.4609L9.9805 17.2782C10.4265 16.8665 11.1481 16.8665 11.594 17.2782L11.8208 17.4875L12.1382 23.3667H10.7408ZM14.5499 23.3667H12.8235L12.5051 17.4745L12.7172 17.2782C13.1631 16.8665 13.8847 16.8665 14.3307 17.2782L14.5499 17.4812V23.3667ZM16.9603 23.3667H15.2339V17.4812L15.4531 17.2782C15.8991 16.8665 16.6207 16.8665 17.0667 17.2782L17.2787 17.4745L16.9603 23.3667ZM17.6457 23.3667L17.963 17.4875L18.1891 17.2782C18.6351 16.8665 19.3567 16.8665 19.8026 17.2782L20 17.4609L19.0431 23.3667H17.6457V23.3667ZM20.121 23.3667H19.7349L20.6853 17.5002L20.7647 17.4267C21.2067 17.017 21.9226 17.0135 22.3693 17.4188L20.121 23.3667ZM22.9158 17.0312L22.9117 17.0277C22.841 16.9577 22.764 16.8934 22.6816 16.8355C22.6686 16.8263 22.6559 16.8168 22.6429 16.8079C22.5623 16.754 22.4771 16.7062 22.3881 16.6651C22.3721 16.6575 22.356 16.6506 22.3392 16.6433C22.2484 16.6044 22.1543 16.5727 22.0578 16.5483C22.0441 16.5445 22.0301 16.5423 22.016 16.5391C21.9127 16.5142 21.8072 16.4978 21.7007 16.49C21.6573 16.4872 21.6142 16.4859 21.5711 16.4859C21.528 16.4859 21.4887 16.4935 21.4473 16.496C21.3933 16.4995 21.3396 16.502 21.2862 16.5096C21.2264 16.5185 21.1686 16.5331 21.1101 16.5473C21.0578 16.56 21.0054 16.5704 20.9545 16.5872C20.8906 16.6102 20.8281 16.6365 20.7674 16.6661C20.7271 16.6844 20.6853 16.6977 20.6467 16.7199C20.5472 16.7737 20.4534 16.8362 20.3666 16.9064L20.2862 16.832C19.573 16.1734 18.4187 16.1734 17.7055 16.832L17.6279 16.9023L17.5503 16.8304C16.8371 16.1718 15.6827 16.1718 14.9695 16.8304L14.8919 16.9023L14.8143 16.8304C14.1011 16.1718 12.9468 16.1718 12.2336 16.8304L12.1559 16.9023L12.0783 16.8304C11.3651 16.1718 10.2108 16.1718 9.4976 16.8304L9.41723 16.9048C8.96836 16.5347 8.34935 16.3968 7.76778 16.5375C7.75376 16.5407 7.73974 16.5429 7.72606 16.5467C7.62957 16.5711 7.53539 16.6029 7.44459 16.6417C7.42784 16.649 7.41039 16.6559 7.39569 16.6635C7.30668 16.7046 7.22148 16.7524 7.1409 16.8064C7.12791 16.8152 7.11525 16.8247 7.10226 16.8339C7.01983 16.8919 6.94284 16.9561 6.87209 17.0261L6.86799 17.0296C6.74722 16.8387 6.68369 16.6213 6.68399 16.4001C6.68399 15.7005 7.29647 15.1334 8.05198 15.1334H21.7319C22.4874 15.1334 23.0998 15.7005 23.0998 16.4001C23.1004 16.6219 23.0369 16.8398 22.9158 17.0312Z" fill="white"/>
<circle cx="15" cy="15" r="14.5" stroke="white"/>
</svg>
