<svg width="30" height="30" viewBox="0 0 30 30" fill="none" xmlns="http://www.w3.org/2000/svg">
<path d="M23.851 15.4338H23.3635C23.1744 15.4338 22.9908 15.4631 22.8155 15.5182C22.6539 14.4583 22.2716 13.3818 21.6941 12.3654L21.8896 11.8225C22.0342 11.4207 22.0755 10.9826 22.0223 10.563L22.5103 9.96497C22.9514 10.2312 23.4945 10.1366 23.8612 9.68728C24.084 9.41447 24.2066 9.05172 24.2066 8.66584C24.2066 8.28 24.084 7.91722 23.8613 7.64441C23.6799 7.42214 23.4446 7.28179 23.1963 7.23726C23.16 6.93303 23.0454 6.64471 22.864 6.4224C22.4043 5.85918 21.6565 5.85922 21.1968 6.4224C20.8301 6.87177 20.753 7.5373 20.9702 8.07783L20.4822 8.67582C20.1398 8.61059 19.7822 8.66122 19.4542 8.83852L18.84 9.17059C17.4833 8.20371 15.9693 7.69347 14.4517 7.69347C13.3312 7.69347 12.2252 7.96576 11.1646 8.50275C10.1801 9.00118 9.27936 9.70227 8.48737 10.5867C6.92985 12.3259 6 14.5901 6 16.6434C6 17.2509 6.08069 17.827 6.23957 18.364C6.10024 18.423 6 18.5847 6 18.7755C6 20.5534 7.18044 21.9998 8.63142 21.9998H13.5031C13.6995 21.9998 13.8587 21.8047 13.8587 21.5641C13.8587 21.3234 13.6995 21.1284 13.5031 21.1284H8.63142C7.6941 21.1284 6.91147 20.3011 6.74419 19.2112H6.77695C6.77719 19.2112 6.77748 19.2112 6.77773 19.2112C6.77801 19.2112 6.7783 19.2112 6.77858 19.2112L23.4624 19.2112C23.2951 20.3011 22.5125 21.1284 21.5752 21.1284H16.7035C16.5071 21.1284 16.3479 21.3234 16.3479 21.5641C16.3479 21.8047 16.5071 21.9998 16.7035 21.9998H21.5752C23.0262 21.9998 24.2066 20.5534 24.2066 18.7754C24.2066 18.6599 24.1691 18.549 24.1024 18.4673C24.0357 18.3856 23.9453 18.3397 23.851 18.3397H23.5895C23.9712 17.8533 24.2066 17.1934 24.2066 16.4669V15.8695C24.2066 15.6288 24.0474 15.4338 23.851 15.4338V15.4338ZM23.4954 16.3052V16.4668C23.4954 17.4776 22.8243 18.2999 21.9995 18.2999H21.8675V18.1383C21.8675 17.1275 22.5386 16.3052 23.3635 16.3052H23.4954ZM22.1448 15.8849C21.9344 16.0563 21.7491 16.2705 21.5977 16.5176C21.3462 16.1008 20.9424 15.8299 20.4878 15.8299C20.355 15.8299 20.2266 15.8535 20.105 15.8966C20.4318 15.561 20.6971 15.1344 20.8745 14.6418L21.3519 13.3159C21.7719 14.1608 22.0417 15.0345 22.1448 15.8849V15.8849ZM20.4878 16.7014C20.8564 16.7014 21.1564 17.0688 21.1564 17.5205C21.1564 17.9722 20.8564 18.3397 20.4878 18.3397C20.1191 18.3397 19.8192 17.9722 19.8192 17.5205C19.8192 17.0688 20.1191 16.7014 20.4878 16.7014ZM18.4395 16.7014C18.8081 16.7014 19.108 17.0688 19.108 17.5205C19.108 17.9722 18.8081 18.3397 18.4395 18.3397C18.0709 18.3397 17.771 17.9722 17.771 17.5205C17.771 17.0688 18.0709 16.7014 18.4395 16.7014ZM21.6886 7.83451C21.5157 7.6078 21.5205 7.25817 21.6998 7.03861C21.8821 6.81517 22.1788 6.81517 22.3612 7.03857C22.4781 7.18179 22.5241 7.38497 22.4844 7.58205C22.4546 7.7302 22.4901 7.88671 22.5782 7.9946C22.6663 8.10253 22.794 8.14615 22.9149 8.10955C23.0758 8.06088 23.2416 8.11735 23.3585 8.26057C23.4468 8.36881 23.4955 8.51273 23.4955 8.6658C23.4955 8.81887 23.4468 8.96279 23.3585 9.07103C23.1793 9.29059 22.894 9.29665 22.7089 9.08467C22.5689 8.92427 22.3502 8.92876 22.2146 9.09486L21.7446 9.67081C21.6761 9.54166 21.5966 9.42 21.5058 9.30876C21.415 9.19748 21.3157 9.1 21.2103 9.01613L21.6803 8.44018C21.8159 8.27408 21.8195 8.00615 21.6886 7.83451V7.83451ZM19.7414 9.63578C19.8871 9.55704 20.0422 9.51883 20.1966 9.51883C20.4932 9.51883 20.7866 9.65987 21.0029 9.92497C21.3318 10.328 21.4267 10.9492 21.2389 11.4708L20.2238 14.2901C19.9384 15.0829 19.3759 15.629 18.6808 15.7884C17.9856 15.9477 17.3001 15.6877 16.8 15.0749C16.3 14.4622 16.0877 13.6222 16.2178 12.7704C16.3478 11.9186 16.7935 11.2295 17.4405 10.8797L19.7414 9.63578ZM8.96643 11.2308C10.506 9.51164 12.4541 8.56488 14.4518 8.56488C15.6729 8.56488 16.8929 8.92632 18.0168 9.6156L17.1535 10.0823C16.3012 10.5431 15.69 11.4881 15.5187 12.6101C15.3474 13.7322 15.6384 14.884 16.2971 15.6911C16.5963 16.0576 16.9534 16.3311 17.3398 16.5009C17.1642 16.7846 17.0598 17.1378 17.0598 17.5205C17.0598 17.8176 17.1229 18.0969 17.2331 18.3397H14.0383C14.1395 18.1093 14.1974 17.8464 14.1982 17.5675C14.1995 17.1258 14.0601 16.7102 13.8057 16.3973C13.5512 16.0844 13.2125 15.9121 12.852 15.9121H12.5365C12.6144 14.7451 12.0785 13.6156 11.1673 13.1423L10.8101 12.9568C10.6758 12.887 10.5201 12.9249 10.4177 13.0525C10.3153 13.1801 10.287 13.3714 10.3464 13.5349C10.5665 14.142 10.4928 14.8413 10.1539 15.3599L9.31204 16.648C8.99986 17.1257 8.94022 17.7652 9.15646 18.3168C9.15952 18.3247 9.16311 18.332 9.16628 18.3397H6.99845C6.80781 17.823 6.7112 17.2536 6.7112 16.6434C6.7112 14.8311 7.55428 12.8077 8.96643 11.2308V11.2308ZM11.1812 14.1436C11.7102 14.6028 11.9594 15.4343 11.7691 16.2245C11.7374 16.3563 11.7583 16.4987 11.8254 16.6087C11.8926 16.7187 11.9981 16.7835 12.1102 16.7835H12.852C13.022 16.7835 13.1818 16.8648 13.3018 17.0124C13.4218 17.16 13.4876 17.356 13.487 17.5644C13.4858 17.9919 13.2009 18.3397 12.852 18.3397H10.3167C10.0898 18.3397 9.89571 18.1902 9.79746 17.9395C9.69921 17.6889 9.72528 17.4098 9.86709 17.1928L10.7089 15.9046C11.0416 15.3957 11.2031 14.77 11.1812 14.1436V14.1436Z" fill="white"/>
<path d="M15.1033 21.1285C15.0098 21.1285 14.918 21.1747 14.8519 21.2558C14.7857 21.3373 14.7477 21.4492 14.7477 21.5643C14.7477 21.6789 14.7857 21.7913 14.8519 21.8723C14.918 21.9534 15.0098 22 15.1033 22C15.1968 22 15.2885 21.9534 15.3547 21.8723C15.4208 21.7908 15.4589 21.6789 15.4589 21.5643C15.4589 21.4497 15.4208 21.3373 15.3547 21.2558C15.2885 21.1747 15.1968 21.1285 15.1033 21.1285Z" fill="white"/>
<circle cx="15" cy="15" r="14.5" stroke="white"/>
</svg>
